<svg width="138" height="46" viewBox="0 0 138 46" fill="none" xmlns="http://www.w3.org/2000/svg">
<path d="M15.912 41.576C11.144 41.576 7.416 40.248 4.728 37.592C2.04 34.936 0.696 31.144 0.696 26.216V7.4H8.472V25.928C8.472 29.128 9.128 31.432 10.44 32.84C11.752 34.248 13.592 34.952 15.96 34.952C18.328 34.952 20.168 34.248 21.48 32.84C22.792 31.432 23.448 29.128 23.448 25.928V7.4H31.128V26.216C31.128 31.144 29.784 34.936 27.096 37.592C24.408 40.248 20.68 41.576 15.912 41.576ZM34.5034 41L48.9514 21.08V26.744L35.1274 7.4H43.9594L53.5114 20.888L49.8154 20.936L59.2234 7.4H67.6714L53.9434 26.408V20.84L68.4874 41H59.5114L49.6234 26.744H53.1754L43.4314 41H34.5034ZM67.6504 45.8L83.4904 0.583997H90.1624L74.3224 45.8H67.6504ZM106.943 41.576C102.175 41.576 98.4473 40.248 95.7593 37.592C93.0713 34.936 91.7273 31.144 91.7273 26.216V7.4H99.5033V25.928C99.5033 29.128 100.159 31.432 101.471 32.84C102.783 34.248 104.623 34.952 106.991 34.952C109.359 34.952 111.199 34.248 112.511 32.84C113.823 31.432 114.479 29.128 114.479 25.928V7.4H122.159V26.216C122.159 31.144 120.815 34.936 118.127 37.592C115.439 40.248 111.711 41.576 106.943 41.576ZM129.843 41V7.4H137.619V41H129.843Z" fill="#00C4F0"/>
</svg>
